<?xml version="1.0" encoding="UTF-8" standalone="no"?>
<!DOCTYPE svg PUBLIC "-//W3C//DTD SVG 1.1//EN"
 "http://www.w3.org/Graphics/SVG/1.1/DTD/svg11.dtd">
<!-- Generated by graphviz version 5.0.0 (20220707.1540)
 -->
<!-- Title: dependencies Pages: 1 -->
<svg width="4490pt" height="312pt"
 viewBox="0.00 0.00 4490.00 311.80" xmlns="http://www.w3.org/2000/svg" xmlns:xlink="http://www.w3.org/1999/xlink">
<g id="graph0" class="graph" transform="scale(1 1) rotate(0) translate(4 307.8)">
<title>dependencies</title>
<polygon fill="white" stroke="transparent" points="-4,4 -4,-307.8 4486,-307.8 4486,4 -4,4"/>
<text text-anchor="middle" x="2241" y="-8.2" font-family="sans-serif" font-size="14.00">dependencies</text>
<g id="clust1" class="cluster">
<title>cluster_NgMapsHereModule</title>
<polygon fill="none" stroke="black" stroke-dasharray="1,5" points="8,-32.8 8,-295.8 4474,-295.8 4474,-32.8 8,-32.8"/>
</g>
<g id="clust2" class="cluster">
<title>cluster_NgMapsHereModule_declarations</title>
<polygon fill="none" stroke="black" points="2013,-105.8 2013,-157.8 2318,-157.8 2318,-105.8 2013,-105.8"/>
</g>
<g id="clust6" class="cluster">
<title>cluster_NgMapsHereModule_exports</title>
<polygon fill="none" stroke="black" points="1933,-235.8 1933,-287.8 2245,-287.8 2245,-235.8 1933,-235.8"/>
</g>
<g id="clust3" class="cluster">
<title>cluster_NgMapsHereModule_HereComponent_providers</title>
<polygon fill="none" stroke="black" points="16,-40.8 16,-92.8 4466,-92.8 4466,-40.8 16,-40.8"/>
</g>
<g id="clust8" class="cluster">
<title>cluster_NgMapsHereModule_providers</title>
<polygon fill="none" stroke="black" points="1753,-105.8 1753,-157.8 2005,-157.8 2005,-105.8 1753,-105.8"/>
</g>
<!-- HereComponent -->
<g id="node1" class="node">
<title>HereComponent</title>
<polygon fill="#ffffb3" stroke="black" points="2310.03,-149.8 2201.97,-149.8 2201.97,-113.8 2310.03,-113.8 2310.03,-149.8"/>
<text text-anchor="middle" x="2256" y="-127.6" font-family="Times,serif" font-size="14.00">HereComponent</text>
</g>
<!-- NgMapsHereModule -->
<g id="node3" class="node">
<title>NgMapsHereModule</title>
<polygon fill="#8dd3c7" stroke="black" points="2169.47,-214.8 2166.47,-218.8 2145.47,-218.8 2142.47,-214.8 2034.53,-214.8 2034.53,-178.8 2169.47,-178.8 2169.47,-214.8"/>
<text text-anchor="middle" x="2102" y="-192.6" font-family="Times,serif" font-size="14.00">NgMapsHereModule</text>
</g>
<!-- HereComponent&#45;&gt;NgMapsHereModule -->
<g id="edge1" class="edge">
<title>HereComponent&#45;&gt;NgMapsHereModule</title>
<path fill="none" stroke="black" d="M2219.38,-149.91C2219.38,-169.14 2219.38,-196.8 2219.38,-196.8 2219.38,-196.8 2179.6,-196.8 2179.6,-196.8"/>
<polygon fill="black" stroke="black" points="2179.6,-193.3 2169.6,-196.8 2179.6,-200.3 2179.6,-193.3"/>
</g>
<!-- MarkerClusterComponent -->
<g id="node2" class="node">
<title>MarkerClusterComponent</title>
<polygon fill="#ffffb3" stroke="black" points="2183.47,-149.8 2020.53,-149.8 2020.53,-113.8 2183.47,-113.8 2183.47,-149.8"/>
<text text-anchor="middle" x="2102" y="-127.6" font-family="Times,serif" font-size="14.00">MarkerClusterComponent</text>
</g>
<!-- MarkerClusterComponent&#45;&gt;NgMapsHereModule -->
<g id="edge10" class="edge">
<title>MarkerClusterComponent&#45;&gt;NgMapsHereModule</title>
<path fill="none" stroke="black" d="M2102,-149.91C2102,-149.91 2102,-168.79 2102,-168.79"/>
<polygon fill="black" stroke="black" points="2098.5,-168.79 2102,-178.79 2105.5,-168.79 2098.5,-168.79"/>
</g>
<!-- HereComponent  -->
<g id="node12" class="node">
<title>HereComponent </title>
<polygon fill="#fb8072" stroke="black" points="2237.03,-279.8 2124.97,-279.8 2124.97,-243.8 2237.03,-243.8 2237.03,-279.8"/>
<text text-anchor="middle" x="2181" y="-257.6" font-family="Times,serif" font-size="14.00">HereComponent </text>
</g>
<!-- NgMapsHereModule&#45;&gt;HereComponent  -->
<g id="edge11" class="edge">
<title>NgMapsHereModule&#45;&gt;HereComponent </title>
<path fill="none" stroke="black" stroke-dasharray="5,2" d="M2147.24,-214.91C2147.24,-214.91 2147.24,-233.79 2147.24,-233.79"/>
<polygon fill="black" stroke="black" points="2143.74,-233.79 2147.24,-243.79 2150.74,-233.79 2143.74,-233.79"/>
</g>
<!-- MarkerClusterComponent  -->
<g id="node13" class="node">
<title>MarkerClusterComponent </title>
<polygon fill="#fb8072" stroke="black" points="2107.47,-279.8 1940.53,-279.8 1940.53,-243.8 2107.47,-243.8 2107.47,-279.8"/>
<text text-anchor="middle" x="2024" y="-257.6" font-family="Times,serif" font-size="14.00">MarkerClusterComponent </text>
</g>
<!-- NgMapsHereModule&#45;&gt;MarkerClusterComponent  -->
<g id="edge12" class="edge">
<title>NgMapsHereModule&#45;&gt;MarkerClusterComponent </title>
<path fill="none" stroke="black" stroke-dasharray="5,2" d="M2070.88,-214.91C2070.88,-214.91 2070.88,-233.79 2070.88,-233.79"/>
<polygon fill="black" stroke="black" points="2067.38,-233.79 2070.88,-243.79 2074.38,-233.79 2067.38,-233.79"/>
</g>
<!-- { provide: MapsApiWrapper, useClass: HereMapsWrapperService } -->
<g id="node4" class="node">
<title>{ provide: MapsApiWrapper, useClass: HereMapsWrapperService }</title>
<ellipse fill="#fdb462" stroke="black" cx="4182" cy="-66.8" rx="276.26" ry="18"/>
<text text-anchor="middle" x="4182" y="-62.6" font-family="Times,serif" font-size="14.00">{ provide: MapsApiWrapper, useClass: HereMapsWrapperService }</text>
</g>
<!-- { provide: MapsApiWrapper, useClass: HereMapsWrapperService }&#45;&gt;HereComponent -->
<g id="edge2" class="edge">
<title>{ provide: MapsApiWrapper, useClass: HereMapsWrapperService }&#45;&gt;HereComponent</title>
<path fill="none" stroke="black" d="M4182,-85.09C4182,-107.01 4182,-140.8 4182,-140.8 4182,-140.8 2320.28,-140.8 2320.28,-140.8"/>
<polygon fill="black" stroke="black" points="2320.28,-137.3 2310.28,-140.8 2320.28,-144.3 2320.28,-137.3"/>
</g>
<!-- { provide: FitBoundsService, useClass: HereMapsFitBoundsService } -->
<g id="node5" class="node">
<title>{ provide: FitBoundsService, useClass: HereMapsFitBoundsService }</title>
<ellipse fill="#fdb462" stroke="black" cx="3606" cy="-66.8" rx="282.18" ry="18"/>
<text text-anchor="middle" x="3606" y="-62.6" font-family="Times,serif" font-size="14.00">{ provide: FitBoundsService, useClass: HereMapsFitBoundsService }</text>
</g>
<!-- { provide: FitBoundsService, useClass: HereMapsFitBoundsService }&#45;&gt;HereComponent -->
<g id="edge3" class="edge">
<title>{ provide: FitBoundsService, useClass: HereMapsFitBoundsService }&#45;&gt;HereComponent</title>
<path fill="none" stroke="black" d="M3606,-84.91C3606,-104.14 3606,-131.8 3606,-131.8 3606,-131.8 2320.17,-131.8 2320.17,-131.8"/>
<polygon fill="black" stroke="black" points="2320.17,-128.3 2310.17,-131.8 2320.17,-135.3 2320.17,-128.3"/>
</g>
<!-- { provide: MarkerManager, useClass: HereMapsMarkerManager } -->
<g id="node6" class="node">
<title>{ provide: MarkerManager, useClass: HereMapsMarkerManager }</title>
<ellipse fill="#fdb462" stroke="black" cx="3037" cy="-66.8" rx="269.3" ry="18"/>
<text text-anchor="middle" x="3037" y="-62.6" font-family="Times,serif" font-size="14.00">{ provide: MarkerManager, useClass: HereMapsMarkerManager }</text>
</g>
<!-- { provide: MarkerManager, useClass: HereMapsMarkerManager }&#45;&gt;HereComponent -->
<g id="edge4" class="edge">
<title>{ provide: MarkerManager, useClass: HereMapsMarkerManager }&#45;&gt;HereComponent</title>
<path fill="none" stroke="black" d="M3037,-84.83C3037,-101.2 3037,-122.8 3037,-122.8 3037,-122.8 2320.3,-122.8 2320.3,-122.8"/>
<polygon fill="black" stroke="black" points="2320.3,-119.3 2310.3,-122.8 2320.3,-126.3 2320.3,-119.3"/>
</g>
<!-- { provide: CircleManager, useClass: HereCircleManager } -->
<g id="node7" class="node">
<title>{ provide: CircleManager, useClass: HereCircleManager }</title>
<ellipse fill="#fdb462" stroke="black" cx="2512" cy="-66.8" rx="238.09" ry="18"/>
<text text-anchor="middle" x="2512" y="-62.6" font-family="Times,serif" font-size="14.00">{ provide: CircleManager, useClass: HereCircleManager }</text>
</g>
<!-- { provide: CircleManager, useClass: HereCircleManager }&#45;&gt;HereComponent -->
<g id="edge5" class="edge">
<title>{ provide: CircleManager, useClass: HereCircleManager }&#45;&gt;HereComponent</title>
<path fill="none" stroke="black" d="M2292.11,-73.76C2292.11,-73.76 2292.11,-103.61 2292.11,-103.61"/>
<polygon fill="black" stroke="black" points="2288.61,-103.61 2292.11,-113.61 2295.61,-103.61 2288.61,-103.61"/>
</g>
<!-- { provide: PolygonManager, useClass: HerePolygonManager } -->
<g id="node8" class="node">
<title>{ provide: PolygonManager, useClass: HerePolygonManager }</title>
<ellipse fill="#fdb462" stroke="black" cx="2001" cy="-66.8" rx="255.49" ry="18"/>
<text text-anchor="middle" x="2001" y="-62.6" font-family="Times,serif" font-size="14.00">{ provide: PolygonManager, useClass: HerePolygonManager }</text>
</g>
<!-- { provide: PolygonManager, useClass: HerePolygonManager }&#45;&gt;HereComponent -->
<g id="edge6" class="edge">
<title>{ provide: PolygonManager, useClass: HerePolygonManager }&#45;&gt;HereComponent</title>
<path fill="none" stroke="black" d="M2245.34,-72.34C2245.34,-72.34 2245.34,-103.55 2245.34,-103.55"/>
<polygon fill="black" stroke="black" points="2241.84,-103.55 2245.34,-113.55 2248.84,-103.55 2241.84,-103.55"/>
</g>
<!-- { provide: PolylineManager, useClass: HerePolylineManager } -->
<g id="node9" class="node">
<title>{ provide: PolylineManager, useClass: HerePolylineManager }</title>
<ellipse fill="#fdb462" stroke="black" cx="1473" cy="-66.8" rx="255.48" ry="18"/>
<text text-anchor="middle" x="1473" y="-62.6" font-family="Times,serif" font-size="14.00">{ provide: PolylineManager, useClass: HerePolylineManager }</text>
</g>
<!-- { provide: PolylineManager, useClass: HerePolylineManager }&#45;&gt;HereComponent -->
<g id="edge7" class="edge">
<title>{ provide: PolylineManager, useClass: HerePolylineManager }&#45;&gt;HereComponent</title>
<path fill="none" stroke="black" d="M1473,-84.86C1473,-89.29 1473,-92.8 1473,-92.8 1473,-92.8 2234.44,-92.8 2234.44,-92.8 2234.44,-92.8 2234.44,-103.67 2234.44,-103.67"/>
<polygon fill="black" stroke="black" points="2230.94,-103.67 2234.44,-113.67 2237.94,-103.67 2230.94,-103.67"/>
</g>
<!-- { provide: RectangleManager, useClass: HereRectangleManager } -->
<g id="node10" class="node">
<title>{ provide: RectangleManager, useClass: HereRectangleManager }</title>
<ellipse fill="#fdb462" stroke="black" cx="932" cy="-66.8" rx="268.15" ry="18"/>
<text text-anchor="middle" x="932" y="-62.6" font-family="Times,serif" font-size="14.00">{ provide: RectangleManager, useClass: HereRectangleManager }</text>
</g>
<!-- { provide: RectangleManager, useClass: HereRectangleManager }&#45;&gt;HereComponent -->
<g id="edge8" class="edge">
<title>{ provide: RectangleManager, useClass: HereRectangleManager }&#45;&gt;HereComponent</title>
<path fill="none" stroke="black" d="M932,-84.84C932,-92.55 932,-99.8 932,-99.8 932,-99.8 2223.54,-99.8 2223.54,-99.8 2223.54,-99.8 2223.54,-103.56 2223.54,-103.56"/>
<polygon fill="black" stroke="black" points="2220.04,-103.56 2223.54,-113.56 2227.04,-103.56 2220.04,-103.56"/>
</g>
<!-- { provide: InfoWindowManager, useClass: HereMapsInfoWindowManager } -->
<g id="node11" class="node">
<title>{ provide: InfoWindowManager, useClass: HereMapsInfoWindowManager }</title>
<ellipse fill="#fdb462" stroke="black" cx="335" cy="-66.8" rx="311.01" ry="18"/>
<text text-anchor="middle" x="335" y="-62.6" font-family="Times,serif" font-size="14.00">{ provide: InfoWindowManager, useClass: HereMapsInfoWindowManager }</text>
</g>
<!-- { provide: InfoWindowManager, useClass: HereMapsInfoWindowManager }&#45;&gt;HereComponent -->
<g id="edge9" class="edge">
<title>{ provide: InfoWindowManager, useClass: HereMapsInfoWindowManager }&#45;&gt;HereComponent</title>
<path fill="none" stroke="black" d="M335,-84.93C335,-95.51 335,-106.8 335,-106.8 335,-106.8 2212.64,-106.8 2212.64,-106.8 2212.64,-106.8 2212.64,-107.48 2212.64,-107.48"/>
<polygon fill="black" stroke="black" points="2209.14,-103.63 2212.64,-113.63 2216.14,-103.63 2209.14,-103.63"/>
</g>
<!-- HereMapsPlatformProvider -->
<g id="node14" class="node">
<title>HereMapsPlatformProvider</title>
<ellipse fill="#fdb462" stroke="black" cx="1879" cy="-131.8" rx="118.12" ry="18"/>
<text text-anchor="middle" x="1879" y="-127.6" font-family="Times,serif" font-size="14.00">HereMapsPlatformProvider</text>
</g>
<!-- HereMapsPlatformProvider&#45;&gt;NgMapsHereModule -->
<g id="edge13" class="edge">
<title>HereMapsPlatformProvider&#45;&gt;NgMapsHereModule</title>
<path fill="none" stroke="black" d="M1969.04,-143.72C1969.04,-162.49 1969.04,-196.8 1969.04,-196.8 1969.04,-196.8 2024.35,-196.8 2024.35,-196.8"/>
<polygon fill="black" stroke="black" points="2024.35,-200.3 2034.35,-196.8 2024.35,-193.3 2024.35,-200.3"/>
</g>
</g>
</svg>
