<?xml version="1.0" encoding="UTF-8" standalone="no"?>
<!DOCTYPE svg PUBLIC "-//W3C//DTD SVG 1.1//EN"
 "http://www.w3.org/Graphics/SVG/1.1/DTD/svg11.dtd">
<!-- Generated by graphviz version 5.0.0 (20220707.1540)
 -->
<!-- Title: dependencies Pages: 1 -->
<svg width="230pt" height="247pt"
 viewBox="0.00 0.00 230.00 246.80" xmlns="http://www.w3.org/2000/svg" xmlns:xlink="http://www.w3.org/1999/xlink">
<g id="graph0" class="graph" transform="scale(1 1) rotate(0) translate(4 242.8)">
<title>dependencies</title>
<polygon fill="white" stroke="transparent" points="-4,4 -4,-242.8 226,-242.8 226,4 -4,4"/>
<text text-anchor="middle" x="111" y="-8.2" font-family="sans-serif" font-size="14.00">dependencies</text>
<g id="clust1" class="cluster">
<title>cluster_NgMapsDrawingLayerModule</title>
<polygon fill="none" stroke="black" stroke-dasharray="1,5" points="8,-32.8 8,-230.8 214,-230.8 214,-32.8 8,-32.8"/>
</g>
<g id="clust5" class="cluster">
<title>cluster_NgMapsDrawingLayerModule_exports</title>
<polygon fill="none" stroke="black" points="28,-170.8 28,-222.8 194,-222.8 194,-170.8 28,-170.8"/>
</g>
<g id="clust2" class="cluster">
<title>cluster_NgMapsDrawingLayerModule_declarations</title>
<polygon fill="none" stroke="black" points="30,-40.8 30,-92.8 192,-92.8 192,-40.8 30,-40.8"/>
</g>
<!-- NgMapsDrawingLayer -->
<g id="node1" class="node">
<title>NgMapsDrawingLayer</title>
<polygon fill="#ffffb3" stroke="black" points="183.85,-84.8 38.15,-84.8 38.15,-48.8 183.85,-48.8 183.85,-84.8"/>
<text text-anchor="middle" x="111" y="-62.6" font-family="Times,serif" font-size="14.00">NgMapsDrawingLayer</text>
</g>
<!-- NgMapsDrawingLayerModule -->
<g id="node2" class="node">
<title>NgMapsDrawingLayerModule</title>
<polygon fill="#8dd3c7" stroke="black" points="205.9,-149.8 202.9,-153.8 181.9,-153.8 178.9,-149.8 16.1,-149.8 16.1,-113.8 205.9,-113.8 205.9,-149.8"/>
<text text-anchor="middle" x="111" y="-127.6" font-family="Times,serif" font-size="14.00">NgMapsDrawingLayerModule</text>
</g>
<!-- NgMapsDrawingLayer&#45;&gt;NgMapsDrawingLayerModule -->
<g id="edge1" class="edge">
<title>NgMapsDrawingLayer&#45;&gt;NgMapsDrawingLayerModule</title>
<path fill="none" stroke="black" d="M111,-84.91C111,-84.91 111,-103.79 111,-103.79"/>
<polygon fill="black" stroke="black" points="107.5,-103.79 111,-113.79 114.5,-103.79 107.5,-103.79"/>
</g>
<!-- NgMapsDrawingLayer  -->
<g id="node3" class="node">
<title>NgMapsDrawingLayer </title>
<polygon fill="#fb8072" stroke="black" points="185.85,-214.8 36.15,-214.8 36.15,-178.8 185.85,-178.8 185.85,-214.8"/>
<text text-anchor="middle" x="111" y="-192.6" font-family="Times,serif" font-size="14.00">NgMapsDrawingLayer </text>
</g>
<!-- NgMapsDrawingLayerModule&#45;&gt;NgMapsDrawingLayer  -->
<g id="edge2" class="edge">
<title>NgMapsDrawingLayerModule&#45;&gt;NgMapsDrawingLayer </title>
<path fill="none" stroke="black" stroke-dasharray="5,2" d="M111,-149.91C111,-149.91 111,-168.79 111,-168.79"/>
<polygon fill="black" stroke="black" points="107.5,-168.79 111,-178.79 114.5,-168.79 107.5,-168.79"/>
</g>
</g>
</svg>
