<?xml version="1.0" encoding="UTF-8" standalone="no"?>
<!DOCTYPE svg PUBLIC "-//W3C//DTD SVG 1.1//EN"
 "http://www.w3.org/Graphics/SVG/1.1/DTD/svg11.dtd">
<!-- Generated by graphviz version 5.0.0 (20220707.1540)
 -->
<!-- Title: dependencies Pages: 1 -->
<svg width="4578pt" height="312pt"
 viewBox="0.00 0.00 4578.00 311.80" xmlns="http://www.w3.org/2000/svg" xmlns:xlink="http://www.w3.org/1999/xlink">
<g id="graph0" class="graph" transform="scale(1 1) rotate(0) translate(4 307.8)">
<title>dependencies</title>
<polygon fill="white" stroke="transparent" points="-4,4 -4,-307.8 4574,-307.8 4574,4 -4,4"/>
<text text-anchor="middle" x="2285" y="-8.2" font-family="sans-serif" font-size="14.00">dependencies</text>
<g id="clust1" class="cluster">
<title>cluster_NgMapsGoogleModule</title>
<polygon fill="none" stroke="black" stroke-dasharray="1,5" points="8,-32.8 8,-295.8 4562,-295.8 4562,-32.8 8,-32.8"/>
</g>
<g id="clust2" class="cluster">
<title>cluster_NgMapsGoogleModule_declarations</title>
<polygon fill="none" stroke="black" points="2223,-105.8 2223,-157.8 2361,-157.8 2361,-105.8 2223,-105.8"/>
</g>
<g id="clust3" class="cluster">
<title>cluster_NgMapsGoogleModule_GoogleComponent_providers</title>
<polygon fill="none" stroke="black" points="16,-40.8 16,-92.8 4554,-92.8 4554,-40.8 16,-40.8"/>
</g>
<g id="clust5" class="cluster">
<title>cluster_NgMapsGoogleModule_exports</title>
<polygon fill="none" stroke="black" points="2221,-235.8 2221,-287.8 2363,-287.8 2363,-235.8 2221,-235.8"/>
</g>
<!-- GoogleComponent -->
<g id="node1" class="node">
<title>GoogleComponent</title>
<polygon fill="#ffffb3" stroke="black" points="2353.05,-149.8 2230.95,-149.8 2230.95,-113.8 2353.05,-113.8 2353.05,-149.8"/>
<text text-anchor="middle" x="2292" y="-127.6" font-family="Times,serif" font-size="14.00">GoogleComponent</text>
</g>
<!-- NgMapsGoogleModule -->
<g id="node2" class="node">
<title>NgMapsGoogleModule</title>
<polygon fill="#8dd3c7" stroke="black" points="2366.49,-214.8 2363.49,-218.8 2342.49,-218.8 2339.49,-214.8 2217.51,-214.8 2217.51,-178.8 2366.49,-178.8 2366.49,-214.8"/>
<text text-anchor="middle" x="2292" y="-192.6" font-family="Times,serif" font-size="14.00">NgMapsGoogleModule</text>
</g>
<!-- GoogleComponent&#45;&gt;NgMapsGoogleModule -->
<g id="edge1" class="edge">
<title>GoogleComponent&#45;&gt;NgMapsGoogleModule</title>
<path fill="none" stroke="black" d="M2292,-149.91C2292,-149.91 2292,-168.79 2292,-168.79"/>
<polygon fill="black" stroke="black" points="2288.5,-168.79 2292,-178.79 2295.5,-168.79 2288.5,-168.79"/>
</g>
<!-- GoogleComponent  -->
<g id="node11" class="node">
<title>GoogleComponent </title>
<polygon fill="#fb8072" stroke="black" points="2355.04,-279.8 2228.96,-279.8 2228.96,-243.8 2355.04,-243.8 2355.04,-279.8"/>
<text text-anchor="middle" x="2292" y="-257.6" font-family="Times,serif" font-size="14.00">GoogleComponent </text>
</g>
<!-- NgMapsGoogleModule&#45;&gt;GoogleComponent  -->
<g id="edge10" class="edge">
<title>NgMapsGoogleModule&#45;&gt;GoogleComponent </title>
<path fill="none" stroke="black" stroke-dasharray="5,2" d="M2292,-214.91C2292,-214.91 2292,-233.79 2292,-233.79"/>
<polygon fill="black" stroke="black" points="2288.5,-233.79 2292,-243.79 2295.5,-233.79 2288.5,-233.79"/>
</g>
<!-- { provide: MapsApiWrapper, useClass: GoogleMapsAPIWrapper } -->
<g id="node3" class="node">
<title>{ provide: MapsApiWrapper, useClass: GoogleMapsAPIWrapper }</title>
<ellipse fill="#fdb462" stroke="black" cx="4274" cy="-66.8" rx="272.3" ry="18"/>
<text text-anchor="middle" x="4274" y="-62.6" font-family="Times,serif" font-size="14.00">{ provide: MapsApiWrapper, useClass: GoogleMapsAPIWrapper }</text>
</g>
<!-- { provide: MapsApiWrapper, useClass: GoogleMapsAPIWrapper }&#45;&gt;GoogleComponent -->
<g id="edge2" class="edge">
<title>{ provide: MapsApiWrapper, useClass: GoogleMapsAPIWrapper }&#45;&gt;GoogleComponent</title>
<path fill="none" stroke="black" d="M4274,-85.09C4274,-107.01 4274,-140.8 4274,-140.8 4274,-140.8 2363.22,-140.8 2363.22,-140.8"/>
<polygon fill="black" stroke="black" points="2363.22,-137.3 2353.22,-140.8 2363.22,-144.3 2363.22,-137.3"/>
</g>
<!-- { provide: FitBoundsService, useClass: GoogleMapsFitBoundsService } -->
<g id="node4" class="node">
<title>{ provide: FitBoundsService, useClass: GoogleMapsFitBoundsService }</title>
<ellipse fill="#fdb462" stroke="black" cx="3692" cy="-66.8" rx="291.52" ry="18"/>
<text text-anchor="middle" x="3692" y="-62.6" font-family="Times,serif" font-size="14.00">{ provide: FitBoundsService, useClass: GoogleMapsFitBoundsService }</text>
</g>
<!-- { provide: FitBoundsService, useClass: GoogleMapsFitBoundsService }&#45;&gt;GoogleComponent -->
<g id="edge3" class="edge">
<title>{ provide: FitBoundsService, useClass: GoogleMapsFitBoundsService }&#45;&gt;GoogleComponent</title>
<path fill="none" stroke="black" d="M3692,-84.91C3692,-104.14 3692,-131.8 3692,-131.8 3692,-131.8 2363.06,-131.8 2363.06,-131.8"/>
<polygon fill="black" stroke="black" points="2363.06,-128.3 2353.06,-131.8 2363.06,-135.3 2363.06,-128.3"/>
</g>
<!-- { provide: MarkerManager, useClass: GoogleMapsMarkerManager } -->
<g id="node5" class="node">
<title>{ provide: MarkerManager, useClass: GoogleMapsMarkerManager }</title>
<ellipse fill="#fdb462" stroke="black" cx="3103" cy="-66.8" rx="278.64" ry="18"/>
<text text-anchor="middle" x="3103" y="-62.6" font-family="Times,serif" font-size="14.00">{ provide: MarkerManager, useClass: GoogleMapsMarkerManager }</text>
</g>
<!-- { provide: MarkerManager, useClass: GoogleMapsMarkerManager }&#45;&gt;GoogleComponent -->
<g id="edge4" class="edge">
<title>{ provide: MarkerManager, useClass: GoogleMapsMarkerManager }&#45;&gt;GoogleComponent</title>
<path fill="none" stroke="black" d="M3103,-84.83C3103,-101.2 3103,-122.8 3103,-122.8 3103,-122.8 2363.29,-122.8 2363.29,-122.8"/>
<polygon fill="black" stroke="black" points="2363.29,-119.3 2353.29,-122.8 2363.29,-126.3 2363.29,-119.3"/>
</g>
<!-- { provide: CircleManager, useClass: GoogleCircleManager } -->
<g id="node6" class="node">
<title>{ provide: CircleManager, useClass: GoogleCircleManager }</title>
<ellipse fill="#fdb462" stroke="black" cx="2558" cy="-66.8" rx="247.92" ry="18"/>
<text text-anchor="middle" x="2558" y="-62.6" font-family="Times,serif" font-size="14.00">{ provide: CircleManager, useClass: GoogleCircleManager }</text>
</g>
<!-- { provide: CircleManager, useClass: GoogleCircleManager }&#45;&gt;GoogleComponent -->
<g id="edge5" class="edge">
<title>{ provide: CircleManager, useClass: GoogleCircleManager }&#45;&gt;GoogleComponent</title>
<path fill="none" stroke="black" d="M2331.78,-74.26C2331.78,-74.26 2331.78,-103.64 2331.78,-103.64"/>
<polygon fill="black" stroke="black" points="2328.28,-103.64 2331.78,-113.64 2335.28,-103.64 2328.28,-103.64"/>
</g>
<!-- { provide: PolygonManager, useClass: GooglePolygonManager } -->
<g id="node7" class="node">
<title>{ provide: PolygonManager, useClass: GooglePolygonManager }</title>
<ellipse fill="#fdb462" stroke="black" cx="2027" cy="-66.8" rx="264.83" ry="18"/>
<text text-anchor="middle" x="2027" y="-62.6" font-family="Times,serif" font-size="14.00">{ provide: PolygonManager, useClass: GooglePolygonManager }</text>
</g>
<!-- { provide: PolygonManager, useClass: GooglePolygonManager }&#45;&gt;GoogleComponent -->
<g id="edge6" class="edge">
<title>{ provide: PolygonManager, useClass: GooglePolygonManager }&#45;&gt;GoogleComponent</title>
<path fill="none" stroke="black" d="M2261.32,-75.3C2261.32,-75.3 2261.32,-103.71 2261.32,-103.71"/>
<polygon fill="black" stroke="black" points="2257.82,-103.71 2261.32,-113.71 2264.82,-103.71 2257.82,-103.71"/>
</g>
<!-- { provide: PolylineManager, useClass: GooglePolylineManager } -->
<g id="node8" class="node">
<title>{ provide: PolylineManager, useClass: GooglePolylineManager }</title>
<ellipse fill="#fdb462" stroke="black" cx="1479" cy="-66.8" rx="264.81" ry="18"/>
<text text-anchor="middle" x="1479" y="-62.6" font-family="Times,serif" font-size="14.00">{ provide: PolylineManager, useClass: GooglePolylineManager }</text>
</g>
<!-- { provide: PolylineManager, useClass: GooglePolylineManager }&#45;&gt;GoogleComponent -->
<g id="edge7" class="edge">
<title>{ provide: PolylineManager, useClass: GooglePolylineManager }&#45;&gt;GoogleComponent</title>
<path fill="none" stroke="black" d="M1479,-84.83C1479,-101.2 1479,-122.8 1479,-122.8 1479,-122.8 2220.89,-122.8 2220.89,-122.8"/>
<polygon fill="black" stroke="black" points="2220.89,-126.3 2230.89,-122.8 2220.89,-119.3 2220.89,-126.3"/>
</g>
<!-- { provide: RectangleManager, useClass: GoogleRectangleManager } -->
<g id="node9" class="node">
<title>{ provide: RectangleManager, useClass: GoogleRectangleManager }</title>
<ellipse fill="#fdb462" stroke="black" cx="918" cy="-66.8" rx="277.98" ry="18"/>
<text text-anchor="middle" x="918" y="-62.6" font-family="Times,serif" font-size="14.00">{ provide: RectangleManager, useClass: GoogleRectangleManager }</text>
</g>
<!-- { provide: RectangleManager, useClass: GoogleRectangleManager }&#45;&gt;GoogleComponent -->
<g id="edge8" class="edge">
<title>{ provide: RectangleManager, useClass: GoogleRectangleManager }&#45;&gt;GoogleComponent</title>
<path fill="none" stroke="black" d="M918,-84.91C918,-104.14 918,-131.8 918,-131.8 918,-131.8 2220.74,-131.8 2220.74,-131.8"/>
<polygon fill="black" stroke="black" points="2220.74,-135.3 2230.74,-131.8 2220.74,-128.3 2220.74,-135.3"/>
</g>
<!-- { provide: InfoWindowManager, useClass: GoogleInfoWindowManager } -->
<g id="node10" class="node">
<title>{ provide: InfoWindowManager, useClass: GoogleInfoWindowManager }</title>
<ellipse fill="#fdb462" stroke="black" cx="323" cy="-66.8" rx="299.42" ry="18"/>
<text text-anchor="middle" x="323" y="-62.6" font-family="Times,serif" font-size="14.00">{ provide: InfoWindowManager, useClass: GoogleInfoWindowManager }</text>
</g>
<!-- { provide: InfoWindowManager, useClass: GoogleInfoWindowManager }&#45;&gt;GoogleComponent -->
<g id="edge9" class="edge">
<title>{ provide: InfoWindowManager, useClass: GoogleInfoWindowManager }&#45;&gt;GoogleComponent</title>
<path fill="none" stroke="black" d="M323,-85.09C323,-107.01 323,-140.8 323,-140.8 323,-140.8 2220.91,-140.8 2220.91,-140.8"/>
<polygon fill="black" stroke="black" points="2220.91,-144.3 2230.91,-140.8 2220.91,-137.3 2220.91,-144.3"/>
</g>
</g>
</svg>
