<?xml version="1.0" encoding="UTF-8" standalone="no"?>
<!DOCTYPE svg PUBLIC "-//W3C//DTD SVG 1.1//EN"
 "http://www.w3.org/Graphics/SVG/1.1/DTD/svg11.dtd">
<!-- Generated by graphviz version 5.0.0 (20220707.1540)
 -->
<!-- Title: dependencies Pages: 1 -->
<svg width="240pt" height="247pt"
 viewBox="0.00 0.00 240.00 246.80" xmlns="http://www.w3.org/2000/svg" xmlns:xlink="http://www.w3.org/1999/xlink">
<g id="graph0" class="graph" transform="scale(1 1) rotate(0) translate(4 242.8)">
<title>dependencies</title>
<polygon fill="white" stroke="transparent" points="-4,4 -4,-242.8 236,-242.8 236,4 -4,4"/>
<text text-anchor="middle" x="116" y="-8.2" font-family="sans-serif" font-size="14.00">dependencies</text>
<g id="clust1" class="cluster">
<title>cluster_NgMapsMarkerClustererModule</title>
<polygon fill="none" stroke="black" stroke-dasharray="1,5" points="8,-32.8 8,-230.8 224,-230.8 224,-32.8 8,-32.8"/>
</g>
<g id="clust2" class="cluster">
<title>cluster_NgMapsMarkerClustererModule_declarations</title>
<polygon fill="none" stroke="black" points="27,-40.8 27,-92.8 205,-92.8 205,-40.8 27,-40.8"/>
</g>
<g id="clust5" class="cluster">
<title>cluster_NgMapsMarkerClustererModule_exports</title>
<polygon fill="none" stroke="black" points="25,-170.8 25,-222.8 207,-222.8 207,-170.8 25,-170.8"/>
</g>
<!-- MarkerClusterComponent -->
<g id="node1" class="node">
<title>MarkerClusterComponent</title>
<polygon fill="#ffffb3" stroke="black" points="197.47,-84.8 34.53,-84.8 34.53,-48.8 197.47,-48.8 197.47,-84.8"/>
<text text-anchor="middle" x="116" y="-62.6" font-family="Times,serif" font-size="14.00">MarkerClusterComponent</text>
</g>
<!-- NgMapsMarkerClustererModule -->
<g id="node2" class="node">
<title>NgMapsMarkerClustererModule</title>
<polygon fill="#8dd3c7" stroke="black" points="216.29,-149.8 213.29,-153.8 192.29,-153.8 189.29,-149.8 15.71,-149.8 15.71,-113.8 216.29,-113.8 216.29,-149.8"/>
<text text-anchor="middle" x="116" y="-127.6" font-family="Times,serif" font-size="14.00">NgMapsMarkerClustererModule</text>
</g>
<!-- MarkerClusterComponent&#45;&gt;NgMapsMarkerClustererModule -->
<g id="edge1" class="edge">
<title>MarkerClusterComponent&#45;&gt;NgMapsMarkerClustererModule</title>
<path fill="none" stroke="black" d="M116,-84.91C116,-84.91 116,-103.79 116,-103.79"/>
<polygon fill="black" stroke="black" points="112.5,-103.79 116,-113.79 119.5,-103.79 112.5,-103.79"/>
</g>
<!-- MarkerClusterComponent  -->
<g id="node3" class="node">
<title>MarkerClusterComponent </title>
<polygon fill="#fb8072" stroke="black" points="199.47,-214.8 32.53,-214.8 32.53,-178.8 199.47,-178.8 199.47,-214.8"/>
<text text-anchor="middle" x="116" y="-192.6" font-family="Times,serif" font-size="14.00">MarkerClusterComponent </text>
</g>
<!-- NgMapsMarkerClustererModule&#45;&gt;MarkerClusterComponent  -->
<g id="edge2" class="edge">
<title>NgMapsMarkerClustererModule&#45;&gt;MarkerClusterComponent </title>
<path fill="none" stroke="black" stroke-dasharray="5,2" d="M116,-149.91C116,-149.91 116,-168.79 116,-168.79"/>
<polygon fill="black" stroke="black" points="112.5,-168.79 116,-178.79 119.5,-168.79 112.5,-168.79"/>
</g>
</g>
</svg>
